<svg width="63" height="79" viewBox="0 0 63 79" fill="none" xmlns="http://www.w3.org/2000/svg">
<path d="M60.4247 2.82428C59.1622 1.56174 57.4213 0.7854 55.5001 0.7854H7.82166C5.9004 0.7854 4.15167 1.56958 2.89698 2.82428C1.63444 4.08682 0.858093 5.82771 0.858093 7.74896V55.4274C0.858093 57.3486 1.64228 59.0974 2.89698 60.3521C4.15167 61.6146 5.9004 62.3909 7.82166 62.3909H55.5001C57.4213 62.3909 59.17 61.6067 60.4247 60.3521C61.6873 59.0895 62.4636 57.3486 62.4636 55.4274V7.7568C62.4636 5.83555 61.6794 4.08682 60.4247 2.83212V2.82428ZM13.6874 31.5019V41.9002C13.6874 42.7942 13.3266 43.594 12.7463 44.1822C12.166 44.7703 11.3583 45.131 10.4644 45.131C9.57038 45.131 8.76268 44.7703 8.18238 44.1822C7.60208 43.6019 7.24136 42.7942 7.24136 41.9002V26.24C7.24136 25.3539 7.60208 24.5383 8.18238 23.9581C8.76268 23.3699 9.57038 23.017 10.4644 23.017C11.3583 23.017 12.1582 23.3778 12.7463 23.9581C13.3266 24.5383 13.6874 25.3461 13.6874 26.24V31.5019ZM12.7385 18.4766C12.1504 19.0647 11.3505 19.4176 10.4565 19.4176C9.56255 19.4176 8.75483 19.0569 8.17454 18.4766C7.59424 17.8963 7.23352 17.0886 7.23352 16.1946C7.23352 15.3007 7.59424 14.5008 8.17454 13.9126C8.75483 13.3245 9.56255 12.9638 10.4565 12.9638C11.3505 12.9638 12.1504 13.3245 12.7385 13.9126C13.3188 14.4929 13.6795 15.3007 13.6795 16.1946C13.6795 17.0886 13.3188 17.8963 12.7385 18.4766ZM17.8906 26.24C17.8906 24.4599 19.3335 23.017 21.1136 23.017C22.8937 23.017 24.3366 24.4599 24.3366 26.24V38.4341H29.0966V26.2243C29.0966 24.4442 30.5395 23.0013 32.3196 23.0013C34.0997 23.0013 35.5426 24.4442 35.5426 26.2243V41.6492C35.5426 43.4293 34.0997 44.8722 32.3196 44.8722L21.1136 44.8879C19.3335 44.8879 17.8906 43.445 17.8906 41.6649V26.24ZM23.6308 54.9333C23.0427 55.5215 22.2428 55.8744 21.3488 55.8744C20.4549 55.8744 19.655 55.5136 19.0669 54.9333C18.4866 54.353 18.1258 53.5453 18.1258 52.6514C18.1258 51.7574 18.4866 50.9575 19.0669 50.3694C19.6472 49.7812 20.4549 49.4205 21.3488 49.4205C22.2428 49.4205 23.0427 49.7812 23.6308 50.3694C24.2189 50.9497 24.5797 51.7574 24.5797 52.6514C24.5797 53.5453 24.219 54.353 23.6387 54.9333H23.6308ZM34.7584 54.9333C34.1781 55.5136 33.3704 55.8744 32.4764 55.8744C31.5824 55.8744 30.7747 55.5136 30.1944 54.9333C29.6063 54.353 29.2534 53.5453 29.2534 52.6514C29.2534 51.7574 29.6141 50.9575 30.1944 50.3694C30.7747 49.7812 31.5824 49.4205 32.4764 49.4205C33.3704 49.4205 34.1703 49.7812 34.7584 50.3694C35.3465 50.9497 35.7073 51.7574 35.7073 52.6514C35.7073 53.5453 35.3465 54.353 34.7584 54.9333ZM45.4155 54.9333C44.8273 55.5136 44.0274 55.8744 43.1335 55.8744C42.2395 55.8744 41.4396 55.5136 40.8515 54.9333C40.2634 54.353 39.9026 53.5453 39.9026 52.6514C39.9026 51.7574 40.2634 50.9575 40.8515 50.3694C41.4318 49.7812 42.2395 49.4205 43.1335 49.4205C44.0274 49.4205 44.8273 49.7812 45.4155 50.3694C46.0036 50.9497 46.3565 51.7574 46.3565 52.6514C46.3565 53.5453 45.9958 54.353 45.4155 54.9333ZM56.0725 54.9333C55.4844 55.5136 54.6845 55.8744 53.7906 55.8744C52.8966 55.8744 52.0889 55.5136 51.5086 54.9333C50.9204 54.353 50.5675 53.5453 50.5597 52.6514C50.5597 51.7652 50.9204 50.9575 51.5086 50.3694C52.0967 49.7812 52.8966 49.4205 53.7906 49.4205C54.6767 49.4205 55.4844 49.7812 56.0725 50.3694C56.6607 50.9497 57.0135 51.7574 57.0135 52.6514C57.0135 53.5453 56.6528 54.353 56.0725 54.9333ZM56.0725 28.522C55.4844 29.1023 54.6845 29.4709 53.7906 29.4709L48.4346 29.4944H46.3094V41.7982C46.3094 43.5783 44.8665 45.0212 43.0864 45.0212C41.3063 45.0212 39.8634 43.5783 39.8634 41.7982V26.8125L39.9183 26.8282C39.887 26.6556 39.8634 26.4753 39.8634 26.2949L39.887 21.2448L39.9105 16.1946C39.9105 15.3085 40.2712 14.5008 40.8593 13.9126C41.4396 13.3245 42.2474 12.9638 43.1413 12.9638C44.0353 12.9638 44.8352 13.3245 45.4233 13.9126C46.0114 14.4929 46.3643 15.3007 46.3643 16.1946L46.3408 22.9857L53.7906 23.017C54.6767 23.017 55.4844 23.3778 56.0725 23.9581C56.6607 24.5383 57.0135 25.3461 57.0135 26.24C57.0135 27.134 56.6528 27.9417 56.0725 28.522ZM12.566 54.9333C11.9778 55.5215 11.178 55.8744 10.284 55.8744C9.39002 55.8744 8.59015 55.5136 8.00201 54.9333C7.42172 54.353 7.061 53.5453 7.061 52.6514C7.061 51.7574 7.42172 50.9575 8.00201 50.3694C8.58231 49.7812 9.39002 49.4205 10.284 49.4205C11.178 49.4205 11.9778 49.7812 12.566 50.3694C13.1541 50.9497 13.5148 51.7574 13.5148 52.6514C13.5148 53.5453 13.1541 54.353 12.5738 54.9333H12.566Z" fill="white"/>
<path d="M1.03061 79.0001V77.7454H2.45782V65.222H1.03061V63.9595H5.42204V65.222H3.99483V77.7454H8.3V75.2753H9.68016V79.0001H1.03061Z" fill="white"/>
<path d="M19.2237 77.7846V79.0001H12.4719C11.0917 79.0001 11.0917 78.4042 11.0917 77.1024V75.4164C11.0682 73.7932 11.3897 73.652 13.2404 73.652H16.6045V71.6288C16.6045 70.5388 16.5183 70.5231 15.2008 70.5231H13.8364C12.7071 70.5231 12.5973 70.5231 12.6209 71.6288V72.0758H11.3191V71.4563C11.3191 70.3663 11.3191 70.0291 11.6563 69.6919C11.9935 69.3311 12.2915 69.3311 13.656 69.3076H15.3812C16.5339 69.3076 17.1456 69.3311 17.5769 69.7311C17.9847 70.1153 17.9847 70.6486 17.9847 71.668V77.7846H19.2159H19.2237ZM16.6045 74.742H13.7266C12.5111 74.742 12.4719 74.7812 12.4719 75.8948V76.8123C12.4483 77.7925 12.5817 77.7925 13.6246 77.7925H16.6045V74.7499V74.742Z" fill="white"/>
<path d="M19.757 79.0001V77.7846H21.0117V70.5231H19.757V69.3076H25.4658C27.7007 69.2841 27.7478 69.8408 27.7478 71.5033V77.7846H29.0025V79.0001H25.0816V77.7846H26.3127V71.8876C26.3127 70.6956 26.3127 70.5231 24.9953 70.5231H22.3997V77.7846H23.6387V79.0001H19.7648H19.757Z" fill="white"/>
<path d="M29.5122 79.0001V77.7846H30.7669V70.5231H29.5122V69.3076H35.2211C37.456 69.2841 37.503 69.8408 37.503 71.5033V77.7846H38.7577V79.0001H34.8368V77.7846H36.0758V71.8876C36.0758 70.6956 36.0758 70.5231 34.7584 70.5231H32.1628V77.7846H33.4018V79.0001H29.5279H29.5122Z" fill="white"/>
<path d="M39.2675 78.9999V77.7844H40.5222V70.5229H39.2675V69.3074H41.9258V77.7844H43.1805V78.9999H39.2596H39.2675ZM41.126 66.0452C41.6592 66.0452 42.0827 66.4686 42.0827 67.0019C42.0827 67.5351 41.6592 67.9586 41.126 67.9586C40.5927 67.9586 40.1693 67.5351 40.1693 67.0019C40.1693 66.4686 40.5927 66.0452 41.126 66.0452Z" fill="white"/>
<path d="M51.6262 76.4435C51.587 77.957 51.587 78.1452 51.2655 78.553C50.8577 79 50.3715 79 49.3521 79H46.6701C45.737 79 45.29 78.9764 44.9057 78.6157C44.4823 78.1687 44.4587 77.5335 44.4587 76.467V71.9737C44.4823 70.5465 44.4823 70.123 44.843 69.7152C45.2508 69.2918 45.6978 69.3074 46.9525 69.3074H49.1874C50.6146 69.3467 50.9753 69.3467 51.3204 69.7544C51.6419 70.1152 51.6419 70.6249 51.6419 71.8404V76.4435H51.6262ZM50.2617 71.9737C50.2617 70.57 50.1127 70.57 48.858 70.5229H47.2348C45.9173 70.5229 45.8467 70.5229 45.8311 71.9737V76.3181C45.8311 77.2748 45.8703 77.4238 46.0428 77.6198C46.1683 77.7688 46.1918 77.7688 47.125 77.7923H48.9129C50.0421 77.7923 50.3009 77.7923 50.2539 76.4514V71.9737H50.2617Z" fill="white"/>
<path d="M53.0299 79.0001V77.7846H54.2846V70.5231H53.0299V69.3076H58.7387C60.9737 69.2841 61.0207 69.8408 61.0207 71.5033V77.7846H62.2754V79.0001H58.3545V77.7846H59.5935V71.8876C59.5935 70.6956 59.5935 70.5231 58.2761 70.5231H55.6804V77.7846H56.9116V79.0001H53.0377H53.0299Z" fill="white"/>
</svg>
