<svg width="68" height="67" viewBox="0 0 68 67" fill="none" xmlns="http://www.w3.org/2000/svg">
<path d="M56.5209 46.7305C56.5209 48.6306 54.9763 50.1714 53.0713 50.1714H39.8057C37.8987 50.1714 36.3546 48.6306 36.3546 46.7305C36.3546 44.8296 37.8987 43.2897 39.8057 43.2897H49.6207V33.4999C49.6207 31.6003 51.1657 30.0593 53.0713 30.0593C54.9763 30.0593 56.5209 31.6003 56.5209 33.4999V46.7305ZM32.8336 36.9406C30.9276 36.9406 29.383 35.3997 29.383 33.4999C29.383 31.6003 30.9276 30.0593 32.8336 30.0593C34.7389 30.0593 36.2824 31.6003 36.2824 33.4999C36.2824 35.3997 34.7389 36.9406 32.8336 36.9406ZM25.8614 23.71H16.0452V33.4999C16.0452 35.3997 14.5006 36.9406 12.5957 36.9406C10.6897 36.9406 9.14556 35.3997 9.14556 33.4999V20.2695C9.14556 18.3693 10.6897 16.8297 12.5957 16.8297H25.8614C27.7665 16.8297 29.3115 18.3693 29.3115 20.2695C29.3115 22.1692 27.7665 23.71 25.8614 23.71ZM23.0357 36.9406C21.1305 36.9406 19.5865 35.3997 19.5865 33.4999C19.5865 31.6003 21.1305 30.0593 23.0357 30.0593C24.9406 30.0593 26.4856 31.6003 26.4856 33.4999C26.4856 35.3997 24.9406 36.9406 23.0357 36.9406ZM42.6308 30.0593C44.5356 30.0593 46.0806 31.6003 46.0806 33.4999C46.0806 35.3997 44.5356 36.9406 42.6308 36.9406C40.7248 36.9406 39.1803 35.3997 39.1803 33.4999C39.1803 31.6003 40.7248 30.0593 42.6308 30.0593ZM59.5144 14.2315L36.3989 0.921737C34.3346 -0.263624 31.7103 -0.350789 29.4987 0.921737L6.38385 14.2315C4.32108 15.421 2.93347 17.6436 2.93347 20.1904V46.8095L2.93455 46.8086C2.93668 49.1843 4.17225 51.4947 6.38385 52.7679L29.4987 66.0774C31.5633 67.2637 34.1863 67.3506 36.3989 66.0774L59.5132 52.7679C61.5756 51.5777 62.9634 49.3568 62.9634 46.8095V20.1909C62.9616 17.8145 61.726 15.5053 59.5144 14.2315Z" fill="white"/>
</svg>
