<svg width="211" height="65" viewBox="0 0 211 65" fill="none" xmlns="http://www.w3.org/2000/svg">
<path d="M35.5088 38.7922L32.5034 41.7976L50.5414 59.8356L53.5468 56.8302L35.5088 38.7922Z" fill="white"/>
<path d="M41.5157 32.7719L38.5103 35.7773L56.5482 53.8153L59.5536 50.8099L41.5157 32.7719Z" fill="white"/>
<path d="M8.44864 11.7243L5.44324 14.7297L23.4812 32.7677L26.4866 29.7623L8.44864 11.7243Z" fill="white"/>
<path d="M14.4634 5.71212L11.4579 8.71753L29.4959 26.7555L32.5013 23.7501L14.4634 5.71212Z" fill="white"/>
<path d="M50.5424 5.71864L32.5045 23.7566L35.5099 26.762L53.5478 8.72404L50.5424 5.71864Z" fill="white"/>
<path d="M56.5547 11.7255L38.5168 29.7634L41.5222 32.7688L59.5601 14.7309L56.5547 11.7255Z" fill="white"/>
<path d="M23.4802 32.7765L5.44226 50.8145L8.44767 53.8199L26.4856 35.7819L23.4802 32.7765Z" fill="white"/>
<path d="M29.487 38.7858L11.4491 56.8237L14.4545 59.8291L32.4924 41.7912L29.487 38.7858Z" fill="white"/>
<path d="M30.3717 0.882324H26.1214V13.641H30.3717V0.882324Z" fill="white"/>
<path d="M38.8801 0.882324H34.6298V13.641H38.8801V0.882324Z" fill="white"/>
<path d="M30.3717 51.9092H26.1214V64.6679H30.3717V51.9092Z" fill="white"/>
<path d="M38.8801 51.9092H34.6298V64.6679H38.8801V51.9092Z" fill="white"/>
<path d="M64.3896 26.3918H51.6309V30.6421H64.3896V26.3918Z" fill="white"/>
<path d="M64.3896 34.9001H51.6309V39.1504H64.3896V34.9001Z" fill="white"/>
<path d="M13.3706 26.3918H0.611877V30.6421H13.3706V26.3918Z" fill="white"/>
<path d="M13.3706 34.9001H0.611877V39.1504H13.3706V34.9001Z" fill="white"/>
<path d="M117.157 56.0654H120.969V48.992H122.733L126.058 56.0654H130.042L126.34 48.3255C128.481 47.2276 129.602 45.0005 129.602 42.8676V42.8362C129.602 39.1976 126.513 36.7666 123.392 36.7666H117.15V56.0575L117.157 56.0654ZM120.969 45.3769V40.3817H122.788C124.607 40.3817 125.823 41.3619 125.846 42.8676C125.815 44.5692 124.631 45.3769 122.788 45.3769H120.969ZM145.78 48.4666C145.78 44.3967 143.09 41.2992 138.785 41.2992C134.48 41.2992 131.594 44.7104 131.594 48.7803C131.594 52.8502 134.307 56.379 138.785 56.379C141.992 56.379 143.812 55.1636 145.427 53.1404L142.628 51.1172C141.647 52.3327 140.581 52.9678 139.02 52.9678C137.17 52.9678 135.844 51.87 135.437 50.0507H145.694C145.78 49.5018 145.78 48.9528 145.78 48.4588M135.499 47.4315C135.907 45.7612 137.115 44.8045 138.911 44.8045C140.385 44.8045 141.655 45.6985 142 47.4315H135.499ZM148.58 56.0654H152.391V46.5062C152.712 45.9572 153.575 44.8594 155.394 44.8594C157.214 44.8594 158.366 46.1847 158.366 47.8942V56.0654H162.123V47.8942C162.123 44.1379 159.872 41.3384 155.535 41.3384C154.383 41.3384 153.285 41.5972 152.391 42.1775V41.6285H148.58V56.0732V56.0654ZM165.447 56.0654H169.259V46.5062C169.58 45.9572 170.443 44.8594 172.262 44.8594C174.081 44.8594 175.234 46.1847 175.234 47.8942V56.0654H178.99V47.8942C178.99 44.1379 176.74 41.3384 172.403 41.3384C171.25 41.3384 170.153 41.5972 169.259 42.1775V41.6285H165.447V56.0732V56.0654ZM195.835 48.4666C195.835 44.3967 193.145 41.2992 188.848 41.2992C184.55 41.2992 181.657 44.7104 181.657 48.7803C181.657 52.8502 184.37 56.379 188.848 56.379C192.055 56.379 193.874 55.1636 195.49 53.1404L192.69 51.1172C191.71 52.3327 190.635 52.9678 189.083 52.9678C187.232 52.9678 185.907 51.87 185.499 50.0507H195.756C195.842 49.5018 195.842 48.9528 195.842 48.4588M185.554 47.4315C185.962 45.7612 187.169 44.8045 188.957 44.8045C190.432 44.8045 191.702 45.6985 192.047 47.4315H185.546H185.554ZM199.481 51.9955L197.779 52.6934C198.909 54.8577 200.987 56.3869 204.335 56.3869C207.864 56.3869 209.997 54.3323 209.997 51.8778C209.997 49.4233 208.585 48.0667 204.798 47.2276L204.539 47.1727C202.398 46.7101 201.849 46.3964 201.849 45.6122C201.849 45.0084 202.602 44.3967 203.927 44.3967C205.402 44.3967 206.468 45.2358 206.813 46.3336L208.491 45.7298L210.138 45.0633C209.385 42.5774 207.221 41.307 203.982 41.307C200.203 41.307 198.234 43.4714 198.234 45.8161C198.234 48.4117 200.022 49.6586 203.347 50.4349L203.723 50.5212C205.951 51.0388 206.296 51.3054 206.296 51.9955C206.296 52.8032 205.488 53.2423 204.241 53.2423C202.735 53.2423 201.638 52.4032 201.089 51.3054L199.473 51.9955H199.481ZM203.12 45.6122C203.12 45.6671 203.088 45.6671 203.175 45.6671C203.12 45.6671 203.12 45.6357 203.12 45.6122Z" fill="white"/>
<path d="M77.1483 7.00697V18.6521C77.1483 23.3886 80.1517 26.5959 84.9744 26.5959C89.7972 26.5959 92.8319 23.3886 92.8319 18.6521V7.00697H89.0208V18.6521C89.0208 21.2478 87.5152 22.8397 84.9744 22.8397C82.4337 22.8397 80.9594 21.2478 80.9594 18.6521V7.00697H77.1483ZM96.447 26.3058H100.258V16.7465C100.572 16.1976 101.442 15.0998 103.262 15.0998C105.081 15.0998 106.242 16.425 106.242 18.1346V26.3136H109.998V18.1346C109.998 14.3783 107.747 11.5788 103.411 11.5788C102.258 11.5788 101.16 11.8375 100.266 12.4178V11.8689H96.4549V26.3136L96.447 26.3058ZM113.425 26.3058H117.118V11.8611H113.425V26.3058ZM113.37 9.11643H117.181V5.18767H113.37V9.11643ZM129.202 26.3058L134.629 11.8611H130.677L127.124 21.3105L123.345 11.8611H119.384L125.25 26.3058H129.21H129.202ZM149.999 18.707C149.999 14.6371 147.309 11.5474 143.004 11.5474C138.699 11.5474 135.813 14.9586 135.813 19.0285C135.813 23.0984 138.526 26.6273 143.004 26.6273C146.211 26.6273 148.031 25.4118 149.646 23.3886L146.847 21.3654C145.866 22.5809 144.792 23.2161 143.239 23.2161C141.389 23.2161 140.063 22.1182 139.656 20.2989H149.913C149.999 19.75 149.999 19.201 149.999 18.707ZM139.71 17.664C140.118 15.9859 141.326 15.037 143.122 15.037C144.596 15.037 145.866 15.931 146.211 17.664H139.71ZM152.853 26.3058H156.727V16.7152L161.174 14.9821V11.2259L156.727 12.9276V11.8611H152.853V26.3058ZM164.444 22.228L162.742 22.9259C163.871 25.0903 165.949 26.6194 169.298 26.6194C172.819 26.6194 174.96 24.5727 174.96 22.1104C174.96 19.648 173.54 18.2992 169.76 17.4602L169.502 17.4053C167.361 16.9426 166.812 16.6289 166.812 15.8447C166.812 15.2409 167.565 14.6292 168.89 14.6292C170.364 14.6292 171.431 15.4683 171.776 16.5662L173.454 15.9624L175.101 15.2958C174.348 12.8099 172.184 11.5396 168.945 11.5396C165.165 11.5396 163.197 13.7039 163.197 16.0486C163.197 18.6521 164.993 19.8911 168.31 20.6675L168.686 20.7537C170.905 21.2713 171.258 21.5301 171.258 22.228C171.258 23.0357 170.451 23.4748 169.212 23.4748C167.706 23.4748 166.608 22.6358 166.059 21.5379L164.444 22.228ZM168.082 15.8447C168.082 15.8996 168.051 15.8996 168.137 15.8996C168.082 15.8996 168.082 15.8683 168.082 15.8447ZM178.041 26.3058H181.735V11.8611H178.041V26.3058ZM177.987 9.11643H181.798V5.18767H177.987V9.11643ZM187.06 26.3058H190.761V15.3585H194.776V11.8611H190.761V7.46964H187.06V11.8611H184.174V15.3585H187.06V26.3058ZM210.138 18.707C210.138 14.6371 207.448 11.5474 203.143 11.5474C198.838 11.5474 195.952 14.9586 195.952 19.0285C195.952 23.0984 198.665 26.6273 203.143 26.6273C206.35 26.6273 208.17 25.4118 209.785 23.3886L206.986 21.3654C206.005 22.5809 204.939 23.2161 203.378 23.2161C201.528 23.2161 200.202 22.1182 199.795 20.2989H210.052C210.138 19.75 210.138 19.201 210.138 18.707ZM199.85 17.664C200.257 15.9859 201.465 15.037 203.261 15.037C204.735 15.037 206.005 15.931 206.35 17.664H199.85ZM201.151 9.86925H204.962L207.848 5.07788H203.747L201.151 9.86925Z" fill="white"/>
<path d="M87.8916 56.0655H91.7655V34.8376H87.8916V42.0286C86.7937 41.5659 85.6959 41.3072 84.5431 41.3072C80.3869 41.3072 77.1483 44.3969 77.1483 48.851C77.1483 53.3052 80.0968 56.387 84.5431 56.387C85.5861 56.387 86.7075 56.1831 87.8916 55.4617V56.0655ZM80.9594 48.8432C80.9594 46.2711 82.7787 44.8282 84.9744 44.8282C85.986 44.8282 87.029 45.2046 87.8916 45.7535V51.7054C87.1388 52.4034 86.2762 52.8582 84.9117 52.8582C82.8022 52.8582 80.9516 51.4153 80.9516 48.8432M108.257 48.4668C108.257 44.3969 105.567 41.3072 101.262 41.3072C96.9568 41.3072 94.071 44.7184 94.071 48.7883C94.071 52.8582 96.7842 56.387 101.262 56.387C104.469 56.387 106.289 55.1715 107.904 53.1484L105.104 51.1252C104.124 52.3406 103.05 52.9758 101.497 52.9758C99.6465 52.9758 98.3212 51.878 97.9135 50.0587H108.171C108.257 49.5097 108.257 48.9608 108.257 48.4668ZM97.9762 47.4316C98.384 45.7535 99.5916 44.8046 101.387 44.8046C102.862 44.8046 104.132 45.6986 104.477 47.4316H97.9762Z" fill="white"/>
</svg>
