<svg version="1.1" id="Layer_1" xmlns="http://www.w3.org/2000/svg" xmlns:xlink="http://www.w3.org/1999/xlink" x="0px" y="0px"
	 width="100%" viewBox="0 0 1599 1066" enable-background="new 0 0 1599 1066" xml:space="preserve">
<path fill="#FFFFFF" opacity="1.000000" stroke="none" 
	d="
M1600.000000,356.000000 
	C1600.000000,474.355347 1600.000000,592.710693 1599.543945,711.432678 
	C1597.921631,711.788147 1596.755371,711.767151 1595.589111,711.767151 
	C1065.718262,711.765747 535.847351,711.765564 5.976499,711.775391 
	C4.317664,711.775452 2.658832,711.921936 1.000000,712.000000 
	C1.000000,593.644653 1.000000,475.289307 1.457049,356.567657 
	C3.080440,356.212646 4.246781,356.233826 5.413122,356.233826 
	C535.283264,356.235260 1065.153442,356.235474 1595.023560,356.225616 
	C1596.682373,356.225586 1598.341187,356.078430 1600.000000,356.000000 
z"/>
<path fill="#C8102E" opacity="1.000000" stroke="none" 
	d="
M1600.000000,355.533997 
	C1598.341187,356.078430 1596.682373,356.225586 1595.023560,356.225616 
	C1065.153442,356.235474 535.283264,356.235260 5.413122,356.233826 
	C4.246781,356.233826 3.080440,356.212646 1.457049,356.100677 
	C1.000000,237.688812 1.000000,119.377617 1.000000,1.033210 
	C533.878113,1.033210 1066.756226,1.033210 1600.000000,1.033210 
	C1600.000000,119.022392 1600.000000,237.045166 1600.000000,355.533997 
z"/>
<path fill="#C8102E" opacity="1.000000" stroke="none" 
	d="
M1.000000,712.465027 
	C2.658832,711.921936 4.317664,711.775452 5.976499,711.775391 
	C535.847351,711.765564 1065.718262,711.765747 1595.589111,711.767151 
	C1596.755371,711.767151 1597.921631,711.788147 1599.543945,711.899658 
	C1600.000000,830.311218 1600.000000,948.622498 1600.000000,1066.966797 
	C1067.121582,1066.966797 534.243286,1066.966797 1.000000,1066.966797 
	C1.000000,948.976929 1.000000,830.953491 1.000000,712.465027 
z"/>
</svg>