<svg version="1.1" id="Layer_1" xmlns="http://www.w3.org/2000/svg" xmlns:xlink="http://www.w3.org/1999/xlink" x="0px" y="0px"
	 width="100%" viewBox="0 0 1384 1200" enable-background="new 0 0 1384 1200" xml:space="preserve">
<path fill="#FDDA25" opacity="1.000000" stroke="none" 
	d="
M462.000000,1.000000 
	C615.690735,1.000000 769.381531,1.000000 923.464111,1.464163 
	C923.836487,4.427254 923.799744,6.926182 923.799744,9.425110 
	C923.797180,362.662018 923.825012,715.898926 923.762085,1069.135864 
	C923.754272,1113.090576 923.265747,1157.045288 923.000000,1201.000000 
	C922.250000,1201.000000 921.500000,1201.000000 920.051758,1200.738770 
	C917.043579,1200.318359 914.733582,1200.020142 912.423645,1200.019897 
	C764.963501,1199.997803 617.503418,1200.000610 470.043304,1199.995239 
	C467.544861,1199.995239 465.046448,1199.924194 462.386108,1199.787964 
	C462.224243,1199.689575 461.975159,1199.975098 462.090942,1199.529297 
	C462.219666,1198.417358 462.243896,1197.751099 462.243896,1197.084839 
	C462.245667,799.881165 462.246033,402.677429 462.235840,5.473733 
	C462.235779,3.982487 462.082001,2.491245 462.000000,1.000000 
z"/>
<path fill="#EF3340" opacity="1.000000" stroke="none" 
	d="
M923.468628,1201.000000 
	C923.265747,1157.045288 923.754272,1113.090576 923.762085,1069.135864 
	C923.825012,715.898926 923.797180,362.662018 923.799744,9.425110 
	C923.799744,6.926182 923.836487,4.427254 923.927979,1.464163 
	C1077.635132,1.000000 1231.270142,1.000000 1384.952637,1.000000 
	C1384.952637,400.886230 1384.952637,800.772461 1384.952637,1201.000000 
	C1231.312622,1201.000000 1077.625000,1201.000000 923.468628,1201.000000 
z"/>
<path fill="#000000" opacity="1.000000" stroke="none" 
	d="
M461.540283,1.000000 
	C462.082001,2.491245 462.235779,3.982487 462.235840,5.473733 
	C462.246033,402.677429 462.245667,799.881165 462.243896,1197.084839 
	C462.243896,1197.751099 462.219666,1198.417358 461.628052,1199.539307 
	C307.699585,1199.996582 154.349792,1199.998291 1.000000,1200.000000 
	C1.000000,800.434265 1.000000,400.868591 1.000000,1.000000 
	C154.360062,1.000000 307.720337,1.000000 461.540283,1.000000 
z"/>
<path fill="#704815" opacity="1.000000" stroke="none" 
	d="
M1.000000,1200.500000 
	C154.349792,1199.998291 307.699585,1199.996582 461.512268,1199.984985 
	C461.975159,1199.975098 462.224243,1199.689575 462.202209,1200.043213 
	C462.120148,1200.597778 462.060089,1200.798828 462.000000,1201.000000 
	C308.333344,1201.000000 154.666672,1201.000000 1.000000,1200.500000 
z"/>
<path fill="#F9A12E" opacity="1.000000" stroke="none" 
	d="
M462.468658,1201.000000 
	C462.060089,1200.798828 462.120148,1200.597778 462.364105,1200.141602 
	C465.046448,1199.924194 467.544861,1199.995239 470.043304,1199.995239 
	C617.503418,1200.000610 764.963501,1199.997803 912.423645,1200.019897 
	C914.733582,1200.020142 917.043579,1200.318359 919.676758,1200.738770 
	C767.645752,1201.000000 615.291565,1201.000000 462.468658,1201.000000 
z"/>
</svg>